<svg xmlns="http://www.w3.org/2000/svg" xmlns:xlink="http://www.w3.org/1999/xlink" width="8503.94pt" height="8503.94pt" viewBox="0 0 8503.94 8503.94"><g data-name="Layer 2"><path d="M306.54 281.218h7940.235v7937.008H306.54z" fill="#fffcd5" fill-rule="evenodd"/><path d="M2455.229 3603.205v1358.988h-729.24l13.069-2744.453 566.751-62.73 1001.507-527.981 441.727 42.596 2336.706 1313.949 309.978 311.038-2145.166 3337.452-870.059 55.215-39.207-227.398-23.524-606.394h-467.863l-5.228-2260.906z" fill="#d2e288" fill-rule="evenodd"/><path stroke-width=".499" stroke-linejoin="round" fill="none" stroke="#e5d3cd" d="M2455.229 3603.205v1358.988h-729.24l13.069-2744.453 566.751-62.73 1001.507-527.981 441.727 42.596 2336.706 1313.949 309.978 311.038-2145.166 3337.452-870.059 55.215-39.207-227.398-23.524-606.394h-467.863l-5.228-2260.906-389.451 10.624z"/><path d="M5481.97 4658.997l-457.41-273.846-78.412 7.242-128.074 201.26 26.137 53.582 305.81 167.281-78.412 118.926-288.822-164.667-79.72-2.614-116.312 194.726 36.593 49.662 309.73 179.043-245.693 372.461-87.561-52.276-36.647 30.059-510.937-299.277-659.976 83.641 10.456 261.377h27.444l9.148 181.656-81.027 7.842 6.535 683.499 134.608-18.296 13.069 45.74 812.88-164.667 10.456-39.206 120.234-32.671zM5233.661 3119.49l912.204 525.366-405.133 635.145-922.659-546.277zM2322.773 2188.51l1027.313-513.657 43.131 192.131 62.736 11.763v184.288zM3581.93 3041.927l495.936-705.682 254.83 139.177-458.693 715.482zM3605.452 1903.036l2015.112 1117.33 66.145-108.238 41.668-68.184-1987.67-1134.97z" fill="#496e6e" fill-rule="evenodd"/><path d="M5793.444 2974.425l-106.734-62.297 5.685-9.305 106.277 64.632 43.998-72.314 226.09 122.847 294.485 301.89-105.422 164.667-277.495-159.004 87.126-162.489-285.773-174.25zM1833.153 2581.054l113.699-7.841-10.455-181.657 1180.115-98.016 79.72 810.267-1346.09 87.098z" fill="#496e6e" fill-rule="evenodd"/><path d="M2186.011 2629.408l710.944-53.582 27.445 287.514-717.479 65.344z" fill="#d2e288" fill-rule="evenodd"/><path stroke-width=".499" stroke-linejoin="round" fill="none" stroke="#e5d3cd" d="M2186.011 2629.408l710.944-53.582 27.445 287.514-717.479 65.344-20.91-299.276z"/><path d="M5330.371 3454.051l452.182 261.376-130.689 216.943-452.181-256.149z" fill="#d2e288" fill-rule="evenodd"/><path stroke-width=".499" stroke-linejoin="round" fill="none" stroke="#e5d3cd" d="M5330.371 3454.051l452.182 261.376-130.689 216.943-452.181-256.149 130.688-222.17z"/><path d="M3364.82 3225.347l-23.525-34.442 52.275-57.04 888.681 513.605-103.244 172.509-816.802-478.32zM5135.646 4234.26l41.82 16.99 27.445-16.99 103.244 54.89 37.899-39.207 294.049 159.44-91.482 159.44-463.944-262.685z" fill="#496e6e" fill-rule="evenodd"/><path d="M3832.684 4234.26l216.942-20.91 14.376 398.6-231.318 11.297z" fill="#33addb" fill-rule="evenodd"/><path stroke-miterlimit="10" fill="none" stroke="#a5c3d2" d="M3832.684 4234.26l216.942-20.91 14.376 398.6-231.318 11.297V4234.26z"/><path d="M3430.164 4080.048h96.709v141.144h146.37v581.562h-348.936v-154.212l107.215-3.784zM3395.314 3476.922v603.126h602.037v-321.93h-74.057l-6.098-44.432-78.413 8.712-11.326-54.89-187.32-104.55-63.602 7.84-8.713-54.016-94.095-47.048zM4351.951 3687.548l456.538 263.119-75.145 105.886-39.861 56.167-438.241-253.535z" fill="#496e6e" fill-rule="evenodd"/><path d="M4825.914 4107.493l-92.57-50.94-39.861 56.168-406.658-232.3-128.401 154.54 407.382 260.723-303.594 477.448 187.32 116.748 518.397-800.683-88.869-49.662zM3439.312 4810.596h152.905v113.698l254.842-48.354v-130.69l296.663-32.671 22.216 277.06-277.059 69.265-11.761-30.712-371.155 80.373-7.188-82.333-59.463 1.306zM2980.14 5719.596h188.182L3144.8 3608.433h-186.22zM4162.018 5031.024l94.966 4.355 516.655 296.228-123.718 170.766-47.919-23.525-17.426 17.426-516.654-313.652z" fill="#496e6e" fill-rule="evenodd"/><path d="M3592.217 5875.27l389.45-72.314 70.573 354.6-387.71 77.542z" fill="#d2e288" fill-rule="evenodd"/><path stroke-width=".499" stroke-linejoin="round" fill="none" stroke="#e5d3cd" d="M3592.217 5875.27l389.45-72.314 70.573 354.6-387.71 77.542-72.313-359.828z"/><path d="M4193.383 5748.938l48.791-100.194 119.361 68.829-42.691 94.967 117.619 71.442-149.855 235.239z" fill="#d2e288" fill-rule="evenodd"/><path stroke-width=".499" stroke-linejoin="round" fill="none" stroke="#e5d3cd" d="M4193.383 5748.938l48.791-100.194 119.361 68.829-42.691 94.967 117.619 71.442-149.855 235.239-93.225-370.283z"/><path d="M2464.813 3471.477v-74.057l-328.463 16.554 6.97 226.526 74.928-6.1 4.356 239.597 185.578 4.356-6.971-311.91-132.43-15.682v-54.89zM2118.054 3913.203l282.287-5.228v129.817h-54.018l1.742 362.443-230.011-6.1z" fill="#496e6e" fill-rule="evenodd"/><symbol id="a"><path d="M0 .046V.85L.55.276V.8h.114V0l-.55.574V.046H0z"/></symbol><symbol id="b"><path d="M0 .035l.159.81L.417.26l.269.586.142-.81H.711L.64.49.416 0 .199.49.118.035H0z"/></symbol><symbol id="c"><path d="M.114.306V0H0v.754h.129C.192.754.239.75.272.74A.192.192 0 00.358.69.215.215 0 00.423.53a.207.207 0 00-.07-.164.274.274 0 00-.186-.06H.114m0 .105h.042c.105 0 .157.04.157.12C.313.61.259.65.151.65H.114V.412z"/></symbol><symbol id="d"><path d="M.464.655L.372.601a.159.159 0 01-.05.058.115.115 0 01-.063.016.116.116 0 01-.078-.027.083.083 0 01-.032-.066c0-.037.028-.067.082-.09l.076-.03A.32.32 0 00.44.372.203.203 0 00.483.24.23.23 0 00.414.068.238.238 0 00.241 0C.175 0 .12.02.079.058A.268.268 0 000 .222l.115.025A.196.196 0 01.143.155.118.118 0 01.245.106c.036 0 .065.012.088.036a.123.123 0 01.036.09.12.12 0 01-.007.04.094.094 0 01-.019.034.14.14 0 01-.033.029.308.308 0 01-.049.026L.188.39C.085.435.034.5.034.583c0 .056.021.104.065.142A.235.235 0 00.26.782C.347.782.415.74.464.655z"/></symbol><symbol id="e"><path d="M0 0v.754h.158A.576.576 0 00.338.73.36.36 0 00.583.377c0-.116-.04-.21-.122-.281A.355.355 0 00.333.02.582.582 0 00.156 0H0m.114.107h.051c.051 0 .094.005.127.016a.259.259 0 01.176.254c0 .083-.027.15-.083.201-.05.046-.123.069-.22.069H.114v-.54z"/></symbol><symbol id="f"><path d="M.114.754V0H0v.754h.114z"/></symbol><symbol id="g"><path d="M.114.453l.293.3H.56L.22.414.56 0H.409L.137.335.114.312V0H0v.754h.114v-.3z"/></symbol><symbol id="h"><path d="M.338.768V.28A.514.514 0 00.326.15.196.196 0 00.285.066.19.19 0 00.133 0 .255.255 0 000 .037l.056.097A.141.141 0 01.133.106c.034 0 .058.013.07.039.014.026.021.07.021.135v.488h.114z"/></symbol><symbol id="i"><path d="M0 .394a.37.37 0 00.117.273c.077.077.17.115.279.115.107 0 .2-.039.276-.115A.377.377 0 00.788.39.37.37 0 00.672.114.389.389 0 00.39 0a.389.389 0 00-.262.101A.37.37 0 000 .394M.115.393C.115.309.143.24.199.187a.27.27 0 01.193-.08.278.278 0 01.282.284c0 .08-.028.147-.081.202a.266.266 0 01-.198.082.269.269 0 01-.2-.082.272.272 0 01-.08-.2z"/></symbol><symbol id="j"><path d="M.416.647H.114V.466h.293V.359H.114V.107h.302V0H0v.754h.416V.647z"/></symbol><symbol id="k"><path d="M.595.727V.592A.315.315 0 01.39.675.282.282 0 01.115.388.275.275 0 01.39.106a.24.24 0 01.15.046.555.555 0 01.054.04V.055A.41.41 0 00.39 0C.282 0 .19.038.114.113A.374.374 0 000 .387C0 .483.032.57.095.644a.38.38 0 00.303.138.385.385 0 00.197-.055z"/></symbol><symbol id="l"><path d="M.114.459h.325v.295h.114V0H.439v.352H.114V0H0v.754h.114V.459z"/></symbol><symbol id="m"><path d="M0 0v.754h.113c.05 0 .09-.004.12-.012A.181.181 0 00.362.631.217.217 0 00.38.543C.38.489.36.443.318.406A.182.182 0 00.413.334.202.202 0 00.448.216a.2.2 0 00-.063-.15.205.205 0 00-.084-.052A.491.491 0 00.172 0H0m.114.43h.035c.043 0 .074.01.093.028.02.019.03.047.03.083 0 .035-.01.062-.03.08C.222.642.192.65.154.65h-.04V.43m0-.323h.07c.052 0 .09.01.113.03.026.022.038.05.038.083S.323.28.3.302C.275.324.233.335.17.335H.114V.107z"/></symbol><symbol id="n"><path d="M.53.183H.206L.123 0H0l.373.801L.733 0H.608L.53.183M.483.29L.37.546.254.29h.229z"/></symbol><symbol id="o"><path d="M.425.407h.312V.382a.515.515 0 00-.02-.15A.342.342 0 00.384 0a.367.367 0 00-.271.113A.379.379 0 000 .39c0 .109.038.202.115.278a.38.38 0 00.279.115.382.382 0 00.165-.036.476.476 0 00.144-.118L.623.552C.56.634.484.675.395.675a.27.27 0 01-.2-.082A.276.276 0 01.113.39c0-.084.03-.154.09-.208A.27.27 0 01.389.106c.056 0 .106.02.15.057.045.038.07.084.075.137H.425v.107z"/></symbol><symbol id="p"><path d="M.376.647H.114V.466h.253V.359H.114V0H0v.754h.376V.647z"/></symbol><symbol id="q"><path d="M.287.647V0H.173v.647H0v.107h.46V.647H.287z"/></symbol><symbol id="r"><path d="M.255.321L.49 0h-.14L.135.309h-.02V0H0v.754h.133c.1 0 .172-.019.216-.056A.206.206 0 00.422.533c0-.054-.015-.1-.046-.138a.205.205 0 00-.12-.074M.113.408H.15c.108 0 .162.04.162.123 0 .077-.053.116-.158.116h-.04v-.24z"/></symbol><symbol id="s"><path d="M.114.754V.107h.221V0H0v.754h.114z"/></symbol><use xlink:href="#a" transform="matrix(167.7596 -.1241 -.1379 -186.3996 3136.26 2020.618)" fill="#fff"/><use xlink:href="#b" transform="matrix(167.7596 -.1241 -.1379 -186.3996 2969.213 3065.469)" fill="#fff"/><use xlink:href="#c" transform="matrix(167.7596 -.1241 -.1379 -186.3996 3921.142 2838.165)" fill="#fff"/><use xlink:href="#d" transform="matrix(167.7596 -.1241 -.1379 -186.3996 3704.969 3520.3)" fill="#fff"/><use xlink:href="#e" transform="matrix(167.7596 -.1241 -.1379 -186.3996 3638.084 3908.122)" fill="#fff"/><use xlink:href="#f" transform="matrix(167.7596 -.1241 -.1379 -186.3996 3009.307 4569.001)" fill="#fff"/><use xlink:href="#g" transform="matrix(167.7596 -.1241 -.1379 -186.3996 2187.876 4234.462)" fill="#fff"/><use xlink:href="#h" transform="matrix(167.7596 -.1241 -.1379 -186.3996 2270.262 3777.66)" fill="#fff"/><use xlink:href="#i" transform="matrix(167.7596 -.1241 -.1379 -186.3996 4510.228 3990.363)" fill="#fff"/><use xlink:href="#j" transform="matrix(167.7596 -.1241 -.1379 -186.3996 4612.283 4385.33)" fill="#fff"/><use xlink:href="#k" transform="matrix(167.7596 -.1241 -.1379 -186.3996 3507.623 4571.554)" fill="#fff"/><use xlink:href="#l" transform="matrix(167.7596 -.1241 -.1379 -186.3996 3921.363 4495.817)" fill="#fff"/><use xlink:href="#m" transform="matrix(167.7596 -.1241 -.1379 -186.3996 3972.536 4958.423)" fill="#fff"/><use xlink:href="#n" transform="matrix(167.7596 -.1241 -.1379 -186.3996 3949.112 5593.504)" fill="#fff"/><use xlink:href="#o" transform="matrix(167.7596 -.1241 -.1379 -186.3996 4380.696 5321.817)" fill="#fff"/><use xlink:href="#p" transform="matrix(167.7596 -.1241 -.1379 -186.3996 5037.76 4664.242)" fill="#fff"/><use xlink:href="#q" transform="matrix(167.7596 -.1241 -.1379 -186.3996 5408.702 4495.835)" fill="#fff"/><use xlink:href="#r" transform="matrix(167.7596 -.1241 -.1379 -186.3996 4682.323 2459.21)" fill="#fff"/><use xlink:href="#s" transform="matrix(167.7596 -.1241 -.1379 -186.3996 5121.488 3551.747)" fill="#fff"/><path d="M3121.125 2845.331h-93.076v-93.076h93.076z" fill="#231f20"/><path stroke-width="20" stroke-miterlimit="10" fill="none" stroke="#bcbdbf" d="M3260.52 5853.488l-3.881 972.92"/><symbol id="t"><path d="M0 0v.716h.143L.312.209.346.103l.038.115.172.498h.127V0H.592v.6L.384 0H.298L.091.61V0H0z"/></symbol><symbol id="u"><path d="M.359.293v.084h.303V.112A.54.54 0 00.518.028a.43.43 0 00-.344.017.3.3 0 00-.13.13.444.444 0 000 .386c.029.061.07.106.125.135.055.03.118.044.19.044a.37.37 0 00.14-.025.23.23 0 00.098-.07.31.31 0 00.054-.117L.566.504a.264.264 0 01-.04.086.162.162 0 01-.068.05.287.287 0 01-.21-.001.21.21 0 01-.123-.122.375.375 0 01-.027-.144c0-.064.01-.118.032-.16A.212.212 0 01.227.116.297.297 0 01.36.085.32.32 0 01.48.11c.04.016.07.033.09.05v.134H.358z"/></symbol><symbol id="v"><path d="M.368.076A.27.27 0 00.178 0C.12 0 .075.014.045.042A.139.139 0 000 .148a.142.142 0 00.063.12c.018.013.04.023.063.03A.628.628 0 00.204.31a.803.803 0 01.157.03v.023C.361.4.353.424.336.439.314.46.281.47.236.47.195.47.164.462.145.447.125.433.11.407.1.371L.015.382a.21.21 0 00.039.09c.018.022.043.04.077.051A.342.342 0 00.25.542c.044 0 .08-.005.108-.016a.141.141 0 00.061-.04.136.136 0 00.027-.059.495.495 0 00.005-.08V.228C.45.147.45.096.455.074A.2.2 0 01.478.012H.386a.186.186 0 00-.018.064M.361.272A.645.645 0 00.217.239.332.332 0 01.141.22a.076.076 0 01-.047-.07C.094.127.103.108.12.092.138.077.164.07.198.07s.064.007.09.022a.138.138 0 01.059.06c.01.02.014.05.014.089v.032z"/></symbol><symbol id="w"><path d="M0 0v.519h.08v-.08C.1.478.117.502.134.514A.099.099 0 00.19.53c.03 0 .06-.01.09-.028L.252.42a.126.126 0 01-.064.02.083.083 0 01-.052-.018.093.093 0 01-.032-.048.342.342 0 01-.015-.103V0H0z"/></symbol><symbol id="y"><path d="M.368.012v.065A.161.161 0 00.223 0 .205.205 0 00.11.034a.227.227 0 00-.08.095A.334.334 0 000 .271c0 .051.009.098.026.14a.204.204 0 00.193.131.171.171 0 00.143-.071v.257H.45V.012H.368M.09.27C.09.204.104.154.132.12a.127.127 0 01.1-.049c.038 0 .07.016.097.047.027.032.04.08.04.144C.37.334.357.386.33.42a.126.126 0 01-.2.002C.103.39.09.34.09.271z"/></symbol><symbol id="z"><path d="M.384.179L.475.167a.222.222 0 00-.08-.123A.24.24 0 00.248 0a.238.238 0 00-.18.07A.275.275 0 000 .267C0 .354.022.422.067.47a.228.228 0 00.175.072c.07 0 .126-.024.17-.07a.281.281 0 00.066-.2.82.82 0 000-.023H.09A.2.2 0 01.139.118.144.144 0 01.248.072c.032 0 .06.009.082.026.023.017.04.044.054.08M.096.322h.29a.176.176 0 01-.034.098.135.135 0 01-.109.05.14.14 0 01-.102-.04.161.161 0 01-.045-.108z"/></symbol><symbol id="A"><path d="M0 0v.716h.097L.473.154v.562h.091V0H.467L.09.563V0H0z"/></symbol><symbol id="B"><path d="M0 .271c0 .096.027.167.08.213a.241.241 0 00.163.058c.071 0 .13-.023.175-.07A.266.266 0 00.486.278C.486.212.476.16.456.121A.211.211 0 00.368.03.253.253 0 00.243 0a.234.234 0 00-.176.07C.022.116 0 .183 0 .27m.09 0c0-.066.015-.116.044-.15a.14.14 0 01.11-.049c.043 0 .08.017.108.05.029.033.044.084.044.152C.396.338.38.387.352.419a.138.138 0 01-.109.05.14.14 0 01-.11-.05C.106.388.09.338.09.272z"/></symbol><use xlink:href="#t" transform="matrix(156.8259 0 0 -156.8259 1490.862 7537.834)" fill="#231f20"/><use xlink:href="#u" transform="matrix(156.8259 0 0 -156.8259 1077.783 7727.94)" fill="#231f20"/><use xlink:href="#v" transform="matrix(156.8259 0 0 -156.8259 1197.114 7727.864)" fill="#231f20"/><use xlink:href="#w" transform="matrix(156.8259 0 0 -156.8259 1288.827 7726.026)" fill="#231f20"/><use xlink:href="#v" transform="matrix(156.8259 0 0 -156.8259 1336.532 7727.864)" fill="#231f20"/><use xlink:href="#x" transform="matrix(156.8259 0 0 -156.8259 1418.06 7726.026)" fill="#231f20"/><use xlink:href="#y" transform="matrix(156.8259 0 0 -156.8259 1467.019 7727.864)" fill="#231f20"/><use xlink:href="#z" transform="matrix(156.8259 0 0 -156.8259 1554.597 7727.864)" fill="#231f20"/><use xlink:href="#x" transform="matrix(156.8259 0 0 -156.8259 1636.049 7726.026)" fill="#231f20"/><use xlink:href="#A" transform="matrix(156.8259 0 0 -156.8259 1691.592 7726.026)" fill="#231f20"/><use xlink:href="#B" transform="matrix(156.8259 0 0 -156.8259 1798.082 7727.864)" fill="#231f20"/><use xlink:href="#w" transform="matrix(156.8259 0 0 -156.8259 1890.254 7726.026)" fill="#231f20"/><use xlink:href="#y" transform="matrix(156.8259 0 0 -156.8259 1937.653 7727.864)" fill="#231f20"/><path stroke-width="10" stroke-miterlimit="10" fill="none" stroke="#231f20" d="M2086.025 7819.038H1008.152v-460.022h1077.873z"/><clipPath id="C"><path transform="matrix(1 0 0 -1 0 8503.94)" d="M0 8503.937h8503.94V0H0z"/></clipPath><g clip-path="url(#C)"><path d="M1106.526 2084.439l266.604-31.365 128.075 4544.03s-41.82 575.028 755.378 373.769l1691.76-244.387s263.336 2.613 527.327-491.389l2124.991-3280.274 182.963 65.542-2276.589 3497.019s-78.413 154.213 101.936 141.144c180.35-13.069 2213.86-339.79 2213.86-339.79l44.433 235.238-4142.818 611.622s-169.894 28.752-109.777 214.329l36.592 397.292-287.514 47.048-60.117-446.954s-10.455-94.095-222.169-112.392c-211.716-18.296-1037.665 33.98-1037.665 33.98V7118.55s256.148 7.842 232.625-318.88c-23.524-326.72-169.895-4715.231-169.895-4715.231" fill="#ccc" fill-rule="evenodd"/></g><symbol id="D"><path d="M0 0v.716h.269a.327.327 0 00.13-.022.166.166 0 00.079-.067.174.174 0 00.028-.094C.506.503.498.473.48.446A.178.178 0 00.406.381.173.173 0 00.54.208a.209.209 0 00-.074-.16.222.222 0 00-.079-.036A.483.483 0 00.273 0H0m.095.415H.25c.042 0 .072.003.09.008A.1.1 0 01.394.46a.102.102 0 01.019.062.114.114 0 01-.017.063.085.085 0 01-.05.037.398.398 0 01-.108.01H.095V.415m0-.33h.178a.41.41 0 01.064.003c.022.004.04.01.055.02C.407.116.42.13.428.146c.01.018.014.038.014.06 0 .027-.006.05-.02.07a.106.106 0 01-.057.041.344.344 0 01-.105.013H.095V.084z"/></symbol><symbol id="E"><path d="M0 0v.716h.088V0H0z"/></symbol><symbol id="F"><path d="M.197 0L0 .519h.093L.204.208C.216.174.227.14.237.104.245.13.256.164.27.202L.385.52h.09L.28 0H.197z"/></symbol><symbol id="G"><path d="M0 0v.1h.1V0H0z"/></symbol><symbol id="H"><path d="M0 0v.716h.088V.459A.196.196 0 00.243.53a.208.208 0 00.1-.023.13.13 0 00.06-.062.286.286 0 00.02-.116V0H.333v.329c0 .044-.01.075-.028.095-.02.02-.046.03-.08.03A.142.142 0 01.15.435.113.113 0 01.103.38.252.252 0 01.088.284V0H0z"/></symbol><symbol id="I"><path d="M.018.167L.103.155C.107.128.117.109.133.097a.146.146 0 01.09-.024c.04 0 .071.008.093.024a.12.12 0 01.045.069.561.561 0 01.007.112A.18.18 0 00.224.21.196.196 0 00.06.288.343.343 0 00.027.61a.215.215 0 00.077.097.211.211 0 00.12.034.186.186 0 00.152-.074v.062h.081V.281A.42.42 0 00.432.109.178.178 0 00.354.03.27.27 0 00.223 0a.247.247 0 00-.15.042C.035.07.016.112.018.167M.09.48C.09.411.104.361.13.33A.129.129 0 01.233.283.13.13 0 01.334.33c.027.03.041.08.041.146C.375.54.361.587.333.62a.13.13 0 01-.202 0C.104.59.091.542.091.48z"/></symbol><symbol id="J"><path d="M0 0v.716h.247a.598.598 0 00.127-.01.242.242 0 00.105-.052.29.29 0 00.084-.122.474.474 0 00.029-.17.5.5 0 00-.02-.145.354.354 0 00-.048-.104.263.263 0 00-.066-.065.266.266 0 00-.085-.036A.485.485 0 00.258 0H0m.095.084h.153c.047 0 .084.005.11.014a.159.159 0 01.065.037c.022.022.04.052.052.09a.44.44 0 01.02.138.33.33 0 01-.038.173.184.184 0 01-.09.08.37.37 0 01-.122.015h-.15V.084z"/></symbol><symbol id="K"><path d="M.342.012v.076A.19.19 0 00.177 0C.147 0 .118.006.091.018a.144.144 0 00-.059.044.17.17 0 00-.027.065A.446.446 0 000 .209V.53h.088V.243C.088.197.09.166.093.15A.093.093 0 01.128.095a.11.11 0 01.067-.02c.026 0 .05.007.074.02.023.014.04.033.049.056.01.023.015.057.015.101V.53H.42V.012H.342z"/></symbol><symbol id="L"><path d="M.365.202L.452.19A.225.225 0 00.379.05.21.21 0 00.236 0a.224.224 0 00-.172.07C.021.115 0 .181 0 .268c0 .056.01.105.028.147A.193.193 0 00.112.51c.038.021.08.032.124.032A.214.214 0 00.375.499.195.195 0 00.443.378L.358.365a.141.141 0 01-.044.078A.11.11 0 01.24.47.136.136 0 01.132.422C.104.39.09.34.09.272c0-.07.014-.12.04-.152A.13.13 0 01.235.072c.034 0 .063.01.086.032a.158.158 0 01.044.098z"/></symbol><use xlink:href="#D" transform="scale(-189.4978 189.4978) rotate(-88.38 11.02 18.113)" fill="#231f20"/><use xlink:href="#E" transform="scale(-189.4978 189.4978) rotate(-88.38 10.691 17.775)" fill="#231f20"/><use xlink:href="#F" transform="scale(-189.4978 189.4978) rotate(-88.38 10.606 17.687)" fill="#231f20"/><use xlink:href="#y" transform="scale(-189.4978 189.4978) rotate(-88.38 10.339 17.424)" fill="#231f20"/><use xlink:href="#G" transform="scale(-189.4978 189.4978) rotate(-88.38 10.039 17.103)" fill="#231f20"/><use xlink:href="#x" transform="scale(-189.4978 189.4978) rotate(-88.38 9.945 17.007)" fill="#231f20"/><use xlink:href="#u" transform="scale(-189.4978 189.4978) rotate(-88.38 9.773 16.843)" fill="#231f20"/><use xlink:href="#H" transform="scale(-189.4978 189.4978) rotate(-88.38 9.384 16.43)" fill="#231f20"/><use xlink:href="#z" transform="scale(-189.4978 189.4978) rotate(-88.38 9.115 16.165)" fill="#231f20"/><use xlink:href="#B" transform="scale(-189.4978 189.4978) rotate(-88.38 8.838 15.88)" fill="#231f20"/><use xlink:href="#w" transform="scale(-189.4978 189.4978) rotate(-88.38 8.55 15.573)" fill="#231f20"/><use xlink:href="#I" transform="scale(-189.4978 189.4978) rotate(-88.38 8.292 15.524)" fill="#231f20"/><use xlink:href="#H" transform="scale(-189.4978 189.4978) rotate(-88.38 8.106 15.115)" fill="#231f20"/><use xlink:href="#z" transform="scale(-189.4978 189.4978) rotate(-88.38 7.836 14.85)" fill="#231f20"/><use xlink:href="#x" transform="scale(-189.4978 189.4978) rotate(-88.38 7.583 14.577)" fill="#231f20"/><use xlink:href="#J" transform="scale(-189.4978 189.4978) rotate(-88.38 7.405 14.394)" fill="#231f20"/><use xlink:href="#K" transform="scale(-189.4978 189.4978) rotate(-88.38 7.045 14.036)" fill="#231f20"/><use xlink:href="#L" transform="scale(-189.4978 189.4978) rotate(-88.38 6.779 13.762)" fill="#231f20"/><use xlink:href="#v" transform="scale(-189.4978 189.4978) rotate(-88.38 6.53 13.507)" fill="#231f20"/><symbol id="M"><path d="M.538.263L.633.24A.32.32 0 00.525.061.295.295 0 00.336 0a.343.343 0 00-.188.047.298.298 0 00-.11.137.49.49 0 00.004.386c.03.056.07.098.122.127.053.029.11.043.174.043a.293.293 0 00.18-.054.284.284 0 00.103-.154L.527.51a.221.221 0 01-.072.114.193.193 0 01-.12.035.233.233 0 01-.137-.04A.21.21 0 01.12.514.442.442 0 01.124.216.2.2 0 01.207.115.232.232 0 01.329.08c.053 0 .098.015.134.046.037.03.062.076.075.136z"/></symbol><symbol id="N"><path d="M.368.076A.27.27 0 00.178 0C.12 0 .075.014.045.042A.139.139 0 000 .148a.142.142 0 00.063.12c.018.013.04.023.063.03A.628.628 0 00.204.31a.803.803 0 01.157.03v.023C.361.4.353.424.336.439.314.46.281.47.236.47.195.47.164.462.145.447.125.433.11.407.1.371L.015.382a.21.21 0 00.039.09c.018.022.043.04.077.051A.342.342 0 00.25.542c.044 0 .08-.005.108-.016a.141.141 0 00.061-.04.136.136 0 00.027-.059.495.495 0 00.005-.08V.228C.45.147.45.096.455.074A.2.2 0 01.478.012H.386a.186.186 0 00-.018.064M.361.272A.645.645 0 00.217.239.332.332 0 01.141.22a.076.076 0 01-.047-.07C.094.127.103.108.12.092.138.077.164.07.198.07s.064.007.09.022a.138.138 0 01.059.06c.01.02.014.05.014.089v.032z"/></symbol><symbol id="O"><path d="M0 0v.716h.088V0H0z"/></symbol><symbol id="P"><path d="M.384.179L.475.167a.222.222 0 00-.08-.123A.24.24 0 00.248 0a.238.238 0 00-.18.07A.275.275 0 000 .267C0 .354.022.422.067.47a.228.228 0 00.175.072c.07 0 .126-.024.17-.07a.281.281 0 00.066-.2.82.82 0 000-.023H.09A.2.2 0 01.139.118.144.144 0 01.248.072c.032 0 .06.009.082.026.023.017.04.044.054.08M.096.322h.29a.176.176 0 01-.034.098.135.135 0 01-.109.05.14.14 0 01-.102-.04.161.161 0 01-.045-.108z"/></symbol><symbol id="R"><path d="M.359.293v.084h.303V.112A.54.54 0 00.518.028a.43.43 0 00-.344.017.3.3 0 00-.13.13.444.444 0 000 .386c.029.061.07.106.125.135.055.03.118.044.19.044a.37.37 0 00.14-.025.23.23 0 00.098-.07.31.31 0 00.054-.117L.566.504a.264.264 0 01-.04.086.162.162 0 01-.068.05.287.287 0 01-.21-.001.21.21 0 01-.123-.122.375.375 0 01-.027-.144c0-.064.01-.118.032-.16A.212.212 0 01.227.116.297.297 0 01.36.085.32.32 0 01.48.11c.04.016.07.033.09.05v.134H.358z"/></symbol><symbol id="S"><path d="M0 0v.519h.08v-.08C.1.478.117.502.134.514A.099.099 0 00.19.53c.03 0 .06-.01.09-.028L.252.42a.126.126 0 01-.064.02.083.083 0 01-.052-.018.093.093 0 01-.032-.048.342.342 0 01-.015-.103V0H0z"/></symbol><symbol id="T"><path d="M0 .615v.1h.088v-.1H0M0 0v.519h.088V0H0z"/></symbol><symbol id="U"><path d="M.197 0L0 .519h.093L.204.208C.216.174.227.14.237.104.245.13.256.164.27.202L.385.52h.09L.28 0H.197z"/></symbol><symbol id="V"><path d="M.24.338L.253.261A.326.326 0 00.187.253a.15.15 0 00-.075.015.085.085 0 00-.037.04.317.317 0 00-.01.104V.71H0v.068h.064v.129l.088.052V.78H.24V.71H.152V.407c0-.025.001-.041.004-.049A.038.038 0 01.171.341a.06.06 0 01.03-.006l.04.003M.116.111V.2h.09V.11A.121.121 0 00.189.047.115.115 0 00.133 0L.112.034c.03.013.047.04.05.077H.117z"/></symbol><use xlink:href="#M" transform="scale(189.497 -189.497) rotate(8.625 251.75 141.775)" fill="#231f20"/><use xlink:href="#N" transform="scale(189.497 -189.497) rotate(8.625 251.393 146.472)" fill="#231f20"/><use xlink:href="#O" transform="scale(189.497 -189.497) rotate(8.625 251.023 150.337)" fill="#231f20"/><use xlink:href="#P" transform="scale(189.497 -189.497) rotate(8.625 251.004 151.634)" fill="#231f20"/><use xlink:href="#N" transform="scale(189.497 -189.497) rotate(8.625 250.726 155.317)" fill="#231f20"/><use xlink:href="#Q" transform="scale(189.497 -189.497) rotate(8.625 250.388 158.759)" fill="#231f20"/><use xlink:href="#R" transform="scale(189.497 -189.497) rotate(8.625 250.304 160.96)" fill="#231f20"/><use xlink:href="#S" transform="scale(189.497 -189.497) rotate(8.625 249.828 166.191)" fill="#231f20"/><use xlink:href="#T" transform="scale(189.497 -189.497) rotate(8.625 249.66 168.409)" fill="#231f20"/><use xlink:href="#U" transform="scale(189.497 -189.497) rotate(8.625 249.577 169.525)" fill="#231f20"/><use xlink:href="#T" transform="scale(189.497 -189.497) rotate(8.625 249.3 173.196)" fill="#231f20"/><use xlink:href="#V" transform="scale(189.497 -189.497) rotate(8.625 250.936 174.474)" fill="#231f20"/><use xlink:href="#P" transform="scale(189.497 -189.497) rotate(8.625 249.142 176.32)" fill="#231f20"/><use xlink:href="#T" transform="scale(189.497 -189.497) rotate(8.625 248.772 180.198)" fill="#231f20"/><symbol id="W"><path d="M0 .242L.09.25A.201.201 0 01.118.162.165.165 0 01.19.106.276.276 0 01.3.085c.036 0 .068.005.095.016.028.01.049.025.062.044.014.019.02.04.02.062A.092.092 0 01.46.265a.144.144 0 01-.064.043C.375.315.333.327.267.342A.658.658 0 00.13.387a.197.197 0 00-.077.067.166.166 0 00-.025.089c0 .036.01.07.031.101a.19.19 0 00.09.072.34.34 0 00.131.024C.332.74.38.732.42.714A.2.2 0 00.513.64.217.217 0 00.548.526L.458.52a.146.146 0 01-.05.102C.38.645.338.657.283.657.226.657.184.647.158.625a.094.094 0 01-.04-.076c0-.025.01-.047.028-.063A.378.378 0 01.29.435.935.935 0 00.448.389.216.216 0 00.54.316C.56.286.57.253.57.214A.196.196 0 00.537.106.217.217 0 00.443.028a.414.414 0 00-.3 0A.23.23 0 000 .242z"/></symbol><symbol id="X"><path d="M.24.085L.253.008A.326.326 0 00.187 0a.15.15 0 00-.075.015.085.085 0 00-.037.04.317.317 0 00-.01.104v.298H0v.068h.064v.129l.088.053V.525H.24V.457H.152V.154c0-.025.001-.041.004-.049A.038.038 0 01.171.088a.06.06 0 01.03-.006l.04.003z"/></symbol><symbol id="Y"><path d="M0 0v.716h.27A.652.652 0 00.379.709.214.214 0 00.467.675.172.172 0 00.524.606.217.217 0 00.546.51.22.22 0 00.488.354C.45.312.38.291.278.291H.095V0H0m.095.375H.28C.34.375.384.387.41.41A.122.122 0 01.45.506C.449.536.44.56.426.583a.105.105 0 01-.06.042.405.405 0 01-.088.006H.095V.375z"/></symbol><symbol id="Z"><path d="M0 .615v.1h.088v-.1H0M0 0v.519h.088V0H0z"/></symbol><symbol id="aa"><path d="M0 0v.071l.33.38A1.928 1.928 0 00.231.446H.02V.52h.423V.46L.163.131.108.071c.04.003.077.005.111.005h.24V0H0z"/></symbol><use xlink:href="#W" transform="scale(189.498 -189.498) rotate(57.113 41.388 8.34)" fill="#231f20"/><use xlink:href="#X" transform="scale(189.498 -189.498) rotate(57.113 41.063 8.925)" fill="#231f20"/><use xlink:href="#w" transform="scale(189.498 -189.498) rotate(57.113 40.894 9.22)" fill="#231f20"/><use xlink:href="#G" transform="scale(189.498 -189.498) rotate(57.113 40.742 9.5)" fill="#231f20"/><use xlink:href="#x" transform="scale(189.498 -189.498) rotate(57.113 40.649 9.672)" fill="#231f20"/><use xlink:href="#u" transform="scale(189.498 -189.498) rotate(57.113 40.494 9.982)" fill="#231f20"/><use xlink:href="#H" transform="scale(189.498 -189.498) rotate(57.113 40.088 10.702)" fill="#231f20"/><use xlink:href="#z" transform="scale(189.498 -189.498) rotate(57.113 39.835 11.192)" fill="#231f20"/><use xlink:href="#B" transform="scale(189.498 -189.498) rotate(57.113 39.559 11.7)" fill="#231f20"/><use xlink:href="#w" transform="scale(189.498 -189.498) rotate(57.113 39.254 12.234)" fill="#231f20"/><use xlink:href="#I" transform="scale(189.498 -189.498) rotate(57.113 39.298 12.615)" fill="#231f20"/><use xlink:href="#H" transform="scale(189.498 -189.498) rotate(57.113 38.81 13.052)" fill="#231f20"/><use xlink:href="#z" transform="scale(189.498 -189.498) rotate(57.113 38.557 13.541)" fill="#231f20"/><use xlink:href="#x" transform="scale(189.498 -189.498) rotate(57.113 38.286 14.013)" fill="#231f20"/><use xlink:href="#Y" transform="scale(189.498 -189.498) rotate(57.113 38.109 14.339)" fill="#231f20"/><use xlink:href="#B" transform="scale(189.498 -189.498) rotate(57.113 37.808 14.917)" fill="#231f20"/><use xlink:href="#E" transform="scale(189.498 -189.498) rotate(57.113 37.504 15.45)" fill="#231f20"/><use xlink:href="#Z" transform="scale(189.498 -189.498) rotate(57.113 37.392 15.657)" fill="#231f20"/><use xlink:href="#aa" transform="scale(189.498 -189.498) rotate(57.113 37.304 15.818)" fill="#231f20"/><use xlink:href="#K" transform="scale(189.498 -189.498) rotate(57.113 37.043 16.324)" fill="#231f20"/><clipPath id="ab"><path transform="matrix(1 0 0 -1 0 8503.94)" d="M0 8503.937h8503.94V0H0z"/></clipPath><g clip-path="url(#ab)" stroke-miterlimit="10" fill="none"><path stroke-width="80" stroke="#bcbdbf" d="M3687.075 2022.371L6284.944 3479.68M3231.995 2594.848l495.13-541.775M4651.856 3734.09l581.719-838.95M3261.57 5854.911l-15.868-3295.243"/><path stroke-width="20" stroke="#231f20" d="M3228.904 2696.06l-154.317 102.733"/></g><symbol id="ac"><path d="M.468.728h.095V.314a.49.49 0 00-.024-.17A.21.21 0 00.45.04.312.312 0 00.283 0 .344.344 0 00.12.035a.198.198 0 00-.092.1.48.48 0 00-.027.18v.413h.095V.315A.41.41 0 01.112.177.133.133 0 01.172.11.208.208 0 01.274.085c.07 0 .12.016.149.048.03.031.044.092.044.182v.413z"/></symbol><use xlink:href="#t" transform="matrix(156.8259 0 0 -156.8259 3171.6 2650.41)" fill="#231f20"/><use xlink:href="#K" transform="matrix(156.8259 0 0 -156.8259 3300.628 2652.249)" fill="#231f20"/><use xlink:href="#aa" transform="matrix(156.8259 0 0 -156.8259 3380.855 2650.41)" fill="#231f20"/><use xlink:href="#z" transform="matrix(156.8259 0 0 -156.8259 3461.948 2652.249)" fill="#231f20"/><use xlink:href="#K" transform="matrix(156.8259 0 0 -156.8259 3553.431 2652.249)" fill="#231f20"/><use xlink:href="#ac" transform="matrix(156.8259 0 0 -156.8259 3246.468 2840.516)" fill="#231f20"/><use xlink:href="#Y" transform="matrix(156.8259 0 0 -156.8259 3359.466 2838.602)" fill="#231f20"/><use xlink:href="#D" transform="matrix(156.8259 0 0 -156.8259 3463.457 2838.602)" fill="#231f20"/><clipPath id="ad"><path transform="matrix(1 0 0 -1 0 8503.94)" d="M0 8503.937h8503.94V0H0z"/></clipPath><g clip-path="url(#ad)"><path d="M3694.342 6740.515l24.888-127.114 40.583 91.889 42.04-91.89 22.36 127.115h-18.301l-11.41-71.368-34.994 76.805-34-76.881-12.711 71.444zM2639.684 6876.336l24.888-127.114 40.583 91.889 42.04-91.889 22.36 127.114h-18.301l-11.41-71.368-34.995 76.805-34-76.881-12.71 71.444z" fill="#231f20"/><path stroke-width="80" stroke-miterlimit="10" fill="none" stroke="#bcbdbf" d="M5700.215 4375.826l-1093.959-663.15"/><path stroke-width="20" stroke-miterlimit="10" fill="none" stroke="#bcbdbf" d="M4593.214 3747.818L3835.97 3300.95M4420.127 2433.586l-572.306 872.21"/><path stroke-width="17.194" stroke-miterlimit="10" fill="none" stroke="#bcbdbf" d="M4661.695 3018.677l-140.738 202.974-133.397-92.495 140.74-202.974 133.395 92.495zM4214.592 3517.68l238.96-342.765M4463.232 5002.912l678.588-1017.14M4597.165 2973.932l195.544-297.642M4454.747 3032.26l-312.38-175.36M4520.956 3221.651l72.258 526.166M4661.695 3018.677l468.096-25.58"/><path stroke-width="20" stroke-miterlimit="10" fill="none" stroke="#bcbdbf" d="M4351.1 3604.94l-334.776 572.519"/><path stroke-width="19.107" stroke-miterlimit="10" fill="none" stroke="#bcbdbf" d="M4110.352 4664.069h-345.298v-486.611h345.298z"/><path stroke-width="20" stroke-miterlimit="10" fill="none" stroke="#bcbdbf" d="M4110.352 4664.07l352.879 338.842"/><path stroke-width="17.194" stroke-miterlimit="10" fill="none" stroke="#bcbdbf" d="M3258.579 5233.785l738.772-125.221M3997.35 5108.565l374.29-193.601"/></g><use xlink:href="#t" transform="matrix(156.8259 0 0 -156.8259 4409.376 7305.21)" fill="#231f20"/><use xlink:href="#u" transform="matrix(156.8259 0 0 -156.8259 3996.297 7495.316)" fill="#231f20"/><use xlink:href="#v" transform="matrix(156.8259 0 0 -156.8259 4115.628 7495.239)" fill="#231f20"/><use xlink:href="#w" transform="matrix(156.8259 0 0 -156.8259 4207.341 7493.401)" fill="#231f20"/><use xlink:href="#v" transform="matrix(156.8259 0 0 -156.8259 4255.046 7495.239)" fill="#231f20"/><use xlink:href="#x" transform="matrix(156.8259 0 0 -156.8259 4336.575 7493.401)" fill="#231f20"/><use xlink:href="#y" transform="matrix(156.8259 0 0 -156.8259 4385.533 7495.239)" fill="#231f20"/><use xlink:href="#z" transform="matrix(156.8259 0 0 -156.8259 4473.111 7495.239)" fill="#231f20"/><use xlink:href="#x" transform="matrix(156.8259 0 0 -156.8259 4554.563 7493.401)" fill="#231f20"/><use xlink:href="#A" transform="matrix(156.8259 0 0 -156.8259 4610.107 7493.401)" fill="#231f20"/><use xlink:href="#B" transform="matrix(156.8259 0 0 -156.8259 4716.596 7495.239)" fill="#231f20"/><use xlink:href="#w" transform="matrix(156.8259 0 0 -156.8259 4808.769 7493.401)" fill="#231f20"/><use xlink:href="#y" transform="matrix(156.8259 0 0 -156.8259 4856.168 7495.239)" fill="#231f20"/><clipPath id="ae"><path transform="matrix(1 0 0 -1 0 8503.94)" d="M0 8503.937h8503.94V0H0z"/></clipPath><g clip-path="url(#ae)" stroke-miterlimit="10" fill="none"><path stroke-width="10" stroke="#231f20" d="M5004.539 7586.413H3926.667v-460.022h1077.872z"/><path stroke-width="20" stroke="#bcbdbf" d="M4037.691 3419.992l-757.243-446.866"/></g><symbol id="af"><path d="M.468.728h.095V.314a.49.49 0 00-.024-.17A.21.21 0 00.45.04.312.312 0 00.283 0 .344.344 0 00.12.035a.198.198 0 00-.092.1.48.48 0 00-.027.18v.413h.095V.315A.41.41 0 01.112.177.133.133 0 01.172.11.208.208 0 01.274.085c.07 0 .12.016.149.048.03.031.044.092.044.182v.413z"/></symbol><symbol id="ag"><path d="M0 0v.519h.08V.445A.186.186 0 00.243.53C.275.53.304.525.33.513A.134.134 0 00.39.47.17.17 0 00.416.404.503.503 0 00.42.32V0H.333v.315a.235.235 0 01-.01.08.083.083 0 01-.036.043.113.113 0 01-.061.016.143.143 0 01-.098-.036C.101.395.088.35.088.283V0H0z"/></symbol><symbol id="ah"><path d="M0 .167L.087.18A.122.122 0 01.127.1.143.143 0 01.221.072c.04 0 .07.008.09.025.02.016.03.036.03.058C.34.175.33.19.313.202a.381.381 0 01-.09.03.854.854 0 00-.134.041.134.134 0 00-.056.05.133.133 0 00-.02.07c0 .023.006.044.016.064.011.02.026.036.044.049.013.01.032.018.055.025A.298.298 0 00.312.524.145.145 0 00.382.477a.184.184 0 00.03-.08L.325.384a.094.094 0 01-.034.062.123.123 0 01-.08.023C.172.47.144.463.126.45.108.436.1.42.1.403.1.39.103.38.11.373A.078.078 0 01.144.348C.153.345.179.338.222.326.284.31.327.296.352.286A.13.13 0 00.41.238.148.148 0 00.405.081.166.166 0 00.33.021.272.272 0 00.221 0a.245.245 0 00-.154.042A.196.196 0 000 .167z"/></symbol><symbol id="ai"><path d="M.24.085L.253.008A.326.326 0 00.187 0a.15.15 0 00-.075.015.085.085 0 00-.037.04.317.317 0 00-.01.104v.298H0v.068h.064v.129l.088.053V.525H.24V.457H.152V.154c0-.025.001-.041.004-.049A.038.038 0 01.171.088a.06.06 0 01.03-.006l.04.003z"/></symbol><symbol id="aj"><path d="M0 0v.716h.27A.652.652 0 00.379.709.214.214 0 00.467.675.172.172 0 00.524.606.217.217 0 00.546.51.22.22 0 00.488.354C.45.312.38.291.278.291H.095V0H0m.095.375H.28C.34.375.384.387.41.41A.122.122 0 01.45.506C.449.536.44.56.426.583a.105.105 0 01-.06.042.405.405 0 01-.088.006H.095V.375z"/></symbol><symbol id="ak"><path d="M0 .36c0 .12.032.213.096.28a.325.325 0 00.247.1A.343.343 0 00.52.694.307.307 0 00.643.561.425.425 0 00.685.369.422.422 0 00.64.174a.302.302 0 00-.125-.13.357.357 0 00-.354.005.314.314 0 00-.121.133A.404.404 0 000 .361M.098.359C.098.273.12.205.167.155A.23.23 0 01.342.081c.071 0 .13.025.176.075.046.05.069.122.069.214 0 .058-.01.109-.03.152a.232.232 0 01-.214.137A.243.243 0 01.17.59C.122.545.098.468.098.36z"/></symbol><symbol id="al"><path d="M0 0v.716h.095V.084h.352V0H0z"/></symbol><symbol id="am"><path d="M0 0v.716h.095V0H0z"/></symbol><symbol id="an"><path d="M.236 0v.631H0v.085h.567V.63H.331V0H.236z"/></symbol><symbol id="ao"><path d="M0 0v.716h.518V.63H.095V.412H.49V.328H.095V.084h.44V0H0z"/></symbol><symbol id="ap"><path d="M0 0v.716h.095V.422h.372v.294h.095V0H.467v.337H.095V0H0z"/></symbol><symbol id="aq"><path d="M0 0v.716h.097L.473.154v.562h.091V0H.467L.09.563V0H0z"/></symbol><symbol id="ar"><path d="M0 0l.275.716h.102L.67 0H.562L.479.217h-.3L.101 0H0m.207.294h.242L.375.492c-.023.06-.04.11-.051.149A.913.913 0 00.285.504L.207.294z"/></symbol><symbol id="as"><path d="M.368.012v.065A.161.161 0 00.223 0 .205.205 0 00.11.034a.227.227 0 00-.08.095A.334.334 0 000 .271c0 .051.009.098.026.14a.204.204 0 00.193.131.171.171 0 00.143-.071v.257H.45V.012H.368M.09.27C.09.204.104.154.132.12a.127.127 0 01.1-.049c.038 0 .07.016.097.047.027.032.04.08.04.144C.37.334.357.386.33.42a.126.126 0 01-.2.002C.103.39.09.34.09.271z"/></symbol><symbol id="at"><path d="M0 0v.716h.269a.327.327 0 00.13-.022.166.166 0 00.079-.067.174.174 0 00.028-.094C.506.503.498.473.48.446A.178.178 0 00.406.381.173.173 0 00.54.208a.209.209 0 00-.074-.16.222.222 0 00-.079-.036A.483.483 0 00.273 0H0m.095.415H.25c.042 0 .072.003.09.008A.1.1 0 01.394.46a.102.102 0 01.019.062.114.114 0 01-.017.063.085.085 0 01-.05.037.398.398 0 01-.108.01H.095V.415m0-.33h.178a.41.41 0 01.064.003c.022.004.04.01.055.02C.407.116.42.13.428.146c.01.018.014.038.014.06 0 .027-.006.05-.02.07a.106.106 0 01-.057.041.344.344 0 01-.105.013H.095V.084z"/></symbol><symbol id="au"><path d="M.342.012v.076A.19.19 0 00.177 0C.147 0 .118.006.091.018a.144.144 0 00-.059.044.17.17 0 00-.027.065A.446.446 0 000 .209V.53h.088V.243C.088.197.09.166.093.15A.093.093 0 01.128.095a.11.11 0 01.067-.02c.026 0 .05.007.074.02.023.014.04.033.049.056.01.023.015.057.015.101V.53H.42V.012H.342z"/></symbol><symbol id="av"><path d="M.365.202L.452.19A.225.225 0 00.379.05.21.21 0 00.236 0a.224.224 0 00-.172.07C.021.115 0 .181 0 .268c0 .056.01.105.028.147A.193.193 0 00.112.51c.038.021.08.032.124.032A.214.214 0 00.375.499.195.195 0 00.443.378L.358.365a.141.141 0 01-.044.078A.11.11 0 01.24.47.136.136 0 01.132.422C.104.39.09.34.09.272c0-.07.014-.12.04-.152A.13.13 0 01.235.072c.034 0 .063.01.086.032a.158.158 0 01.044.098z"/></symbol><symbol id="aw"><path d="M0 .424l.087.014a.122.122 0 01.04-.08A.143.143 0 01.221.33c.04 0 .07.008.09.024.02.017.03.036.03.058C.34.432.33.448.313.46a.381.381 0 01-.09.03A.854.854 0 00.09.53a.134.134 0 00-.056.05.133.133 0 00-.02.069c0 .023.006.044.016.064.011.02.026.036.044.05.013.01.032.018.055.025.024.007.05.01.077.01C.246.8.282.793.313.782A.145.145 0 00.38.734a.184.184 0 00.03-.08L.325.642a.094.094 0 01-.034.063.123.123 0 01-.08.022C.172.727.144.72.126.707.108.694.1.678.1.66.1.65.103.64.11.63A.078.078 0 01.144.605L.222.583c.062-.016.105-.03.13-.04A.13.13 0 00.41.496.148.148 0 00.405.339.166.166 0 00.33.278a.272.272 0 00-.11-.022A.245.245 0 00.068.3.196.196 0 000 .424M.164.113v.085h.102V.141A.187.187 0 00.248.053.118.118 0 00.184 0L.158.041c.03.013.048.037.053.072H.164z"/></symbol><use xlink:href="#af" transform="matrix(250 0 0 -250 1864.892 747.229)" fill="#231f20"/><use xlink:href="#ag" transform="matrix(250 0 0 -250 2042.218 744.177)" fill="#231f20"/><use xlink:href="#T" transform="matrix(250 0 0 -250 2181.34 744.177)" fill="#231f20"/><use xlink:href="#U" transform="matrix(250 0 0 -250 2223.412 744.177)" fill="#231f20"/><use xlink:href="#P" transform="matrix(250 0 0 -250 2354.394 747.106)" fill="#231f20"/><use xlink:href="#S" transform="matrix(250 0 0 -250 2500.474 744.177)" fill="#231f20"/><use xlink:href="#ah" transform="matrix(250 0 0 -250 2575.179 747.106)" fill="#231f20"/><use xlink:href="#T" transform="matrix(250 0 0 -250 2709.09 744.177)" fill="#231f20"/><use xlink:href="#ai" transform="matrix(250 0 0 -250 2752.383 745.886)" fill="#231f20"/><use xlink:href="#N" transform="matrix(250 0 0 -250 2826.522 747.106)" fill="#231f20"/><use xlink:href="#ai" transform="matrix(250 0 0 -250 2960.883 745.886)" fill="#231f20"/><use xlink:href="#P" transform="matrix(250 0 0 -250 3035.144 747.106)" fill="#231f20"/><use xlink:href="#N" transform="matrix(250 0 0 -250 3174.022 747.106)" fill="#231f20"/><use xlink:href="#Q" transform="matrix(250 0 0 -250 3303.989 744.177)" fill="#231f20"/><use xlink:href="#aj" transform="matrix(250 0 0 -250 3392.776 744.177)" fill="#231f20"/><use xlink:href="#ak" transform="matrix(250 0 0 -250 3552.324 747.229)" fill="#231f20"/><use xlink:href="#al" transform="matrix(250 0 0 -250 3753.049 744.177)" fill="#231f20"/><use xlink:href="#am" transform="matrix(250 0 0 -250 3897.054 744.177)" fill="#231f20"/><use xlink:href="#an" transform="matrix(250 0 0 -250 3949.098 744.177)" fill="#231f20"/><use xlink:href="#ao" transform="matrix(250 0 0 -250 4115.764 744.177)" fill="#231f20"/><use xlink:href="#ap" transform="matrix(250 0 0 -250 4282.758 744.177)" fill="#231f20"/><use xlink:href="#aq" transform="matrix(250 0 0 -250 4462.282 744.177)" fill="#231f20"/><use xlink:href="#am" transform="matrix(250 0 0 -250 4647.054 744.177)" fill="#231f20"/><use xlink:href="#M" transform="matrix(250 0 0 -250 4705.69 747.229)" fill="#231f20"/><use xlink:href="#ar" transform="matrix(250 0 0 -250 4873.373 744.177)" fill="#231f20"/><use xlink:href="#Q" transform="matrix(250 0 0 -250 5026.889 744.177)" fill="#231f20"/><use xlink:href="#as" transform="matrix(250 0 0 -250 5104.934 747.106)" fill="#231f20"/><use xlink:href="#T" transform="matrix(250 0 0 -250 5251.99 744.177)" fill="#231f20"/><use xlink:href="#ag" transform="matrix(250 0 0 -250 5307.368 744.177)" fill="#231f20"/><use xlink:href="#Q" transform="matrix(250 0 0 -250 5429.889 744.177)" fill="#231f20"/><use xlink:href="#at" transform="matrix(250 0 0 -250 5517.699 744.177)" fill="#231f20"/><use xlink:href="#au" transform="matrix(250 0 0 -250 5682.13 747.106)" fill="#231f20"/><use xlink:href="#av" transform="matrix(250 0 0 -250 5814.904 747.106)" fill="#231f20"/><use xlink:href="#au" transform="matrix(250 0 0 -250 5946.13 747.106)" fill="#231f20"/><use xlink:href="#S" transform="matrix(250 0 0 -250 6085.374 744.177)" fill="#231f20"/><use xlink:href="#P" transform="matrix(250 0 0 -250 6161.544 747.106)" fill="#231f20"/><use xlink:href="#aw" transform="matrix(250 0 0 -250 6299.079 811.438)" fill="#231f20"/><use xlink:href="#ai" transform="matrix(250 0 0 -250 6420.783 745.886)" fill="#231f20"/><use xlink:href="#T" transform="matrix(250 0 0 -250 6502.49 744.177)" fill="#231f20"/><symbol id="ax"><path d="M.483.275l.14-.044A.315.315 0 00.517.057.306.306 0 00.326 0a.308.308 0 00-.234.097A.374.374 0 000 .364C0 .483.03.575.092.64c.062.066.143.1.243.1A.298.298 0 00.548.662.282.282 0 00.622.53L.479.497a.151.151 0 01-.054.087.15.15 0 01-.097.033.164.164 0 01-.13-.057C.165.52.148.46.148.375.149.284.166.22.199.18A.159.159 0 01.325.124c.038 0 .071.012.099.036a.213.213 0 01.06.115z"/></symbol><symbol id="ay"><path d="M.139.372L.014.395c.014.05.038.087.072.11A.264.264 0 00.24.543.325.325 0 00.375.52.133.133 0 00.438.465.278.278 0 00.457.342L.456.182c0-.045.002-.08.006-.1a.304.304 0 01.025-.07H.35a.505.505 0 00-.018.056.247.247 0 00-.075-.05A.215.215 0 00.172 0a.178.178 0 00-.126.043.145.145 0 00-.046.11c0 .03.007.056.021.078.014.024.034.041.059.053a.456.456 0 00.109.032.748.748 0 01.133.034v.014C.322.39.316.409.302.42.29.43.266.437.23.437A.097.097 0 01.172.422a.099.099 0 01-.033-.05M.322.261A.858.858 0 00.24.24.252.252 0 01.164.216.057.057 0 01.137.167c0-.019.007-.035.022-.05a.075.075 0 01.054-.02c.025 0 .049.008.071.024a.086.086 0 01.033.046.27.27 0 01.005.066v.028z"/></symbol><symbol id="az"><path d="M0 .519h.126V.448c.046.055.1.082.162.082A.174.174 0 00.375.51a.158.158 0 00.06-.062.24.24 0 00.073.062.18.18 0 00.085.02C.63.53.663.522.689.507A.14.14 0 00.75.439.295.295 0 00.763.332V0H.625v.296c0 .052-.004.085-.014.1C.6.416.58.426.553.426A.094.094 0 01.499.407.098.098 0 01.462.356.368.368 0 01.45.249V0H.313v.284c0 .05-.002.083-.007.098a.062.062 0 01-.023.033.07.07 0 01-.041.01A.095.095 0 01.148.36a.375.375 0 01-.01-.107V0H0v.519z"/></symbol><symbol id="aA"><path d="M0 .716h.128V.64A.191.191 0 00.29.728C.35.728.4.704.443.657A.287.287 0 00.506.459.296.296 0 00.442.257.198.198 0 00.21.203.264.264 0 00.137.26V0H0v.716m.136-.25c0-.059.011-.102.034-.13A.106.106 0 01.255.294a.1.1 0 01.08.039C.354.358.365.4.365.458c0 .055-.01.095-.033.122a.101.101 0 01-.08.04.105.105 0 01-.084-.04C.147.554.136.516.136.465z"/></symbol><symbol id="aB"><path d="M.344.012v.077A.207.207 0 00.078.023a.135.135 0 00-.06.064A.288.288 0 000 .202V.53h.137V.292C.137.219.14.174.145.158a.076.076 0 01.027-.04.086.086 0 01.051-.014c.024 0 .045.007.063.02A.1.1 0 01.324.17c.007.02.01.066.01.14v.22h.138V.01H.344z"/></symbol><symbol id="aC"><path d="M0 .16l.138.02A.102.102 0 01.173.12.121.121 0 01.25.1C.284.1.31.105.329.118.34.128.347.14.347.155c0 .01-.004.02-.01.026A.11.11 0 01.29.2a.74.74 0 00-.21.067.134.134 0 00-.062.117c0 .045.018.082.053.113.036.03.09.046.165.046A.288.288 0 00.396.507a.177.177 0 00.07-.102L.338.38a.08.08 0 01-.031.046.114.114 0 01-.066.016.15.15 0 01-.078-.015A.033.033 0 01.146.4C.146.39.151.382.16.375A.514.514 0 01.288.337.382.382 0 00.441.276.127.127 0 00.484.174.157.157 0 00.424.05C.386.017.327 0 .25 0A.29.29 0 00.08.043.198.198 0 000 .16z"/></symbol><symbol id="aE"><path d="M0 0v.716h.232a.841.841 0 00.172-.01.187.187 0 00.103-.071.221.221 0 00.041-.14.234.234 0 00-.024-.11A.197.197 0 00.39.28a.825.825 0 00-.15-.01H.145V0H0m.145.595V.392h.079c.057 0 .095.003.114.01.02.008.034.02.045.036a.095.095 0 01.016.056.092.092 0 01-.023.064.1.1 0 01-.058.032.695.695 0 01-.104.005h-.07z"/></symbol><symbol id="aF"><path d="M0 .278c0 .046.011.09.034.133a.232.232 0 00.095.097.285.285 0 00.138.034.258.258 0 00.268-.27A.268.268 0 00.46.077.256.256 0 00.269 0a.303.303 0 00-.137.032.222.222 0 00-.098.094A.316.316 0 000 .278M.14.271C.14.22.154.181.178.153a.116.116 0 01.09-.041c.036 0 .066.013.09.04.025.028.037.068.037.12 0 .05-.012.09-.037.117a.115.115 0 01-.09.041.116.116 0 01-.09-.04C.153.361.141.321.141.27z"/></symbol><symbol id="aG"><path d="M0 0v.716h.137V0H0z"/></symbol><symbol id="aH"><path d="M0 .589v.127h.137V.589H0M0 0v.519h.137V0H0z"/></symbol><symbol id="aI"><path d="M0 0v.107L.194.33C.226.367.25.392.265.408A1.354 1.354 0 00.202.406L.02.405v.114h.429V.42L.25.193.18.117l.07.004h.213V0H0z"/></symbol><use xlink:href="#ax" transform="matrix(250 0 0 -250 3309.33 1047.228)" fill="#231f20"/><use xlink:href="#ay" transform="matrix(250 0 0 -250 3486.9 1047.107)" fill="#231f20"/><use xlink:href="#az" transform="matrix(250 0 0 -250 3632.37 1044.177)" fill="#231f20"/><use xlink:href="#aA" transform="matrix(250 0 0 -250 3856.206 1093.493)" fill="#231f20"/><use xlink:href="#aB" transform="matrix(250 0 0 -250 4009.2 1047.107)" fill="#231f20"/><use xlink:href="#aC" transform="matrix(250 0 0 -250 4150.598 1047.107)" fill="#231f20"/><use xlink:href="#aD" transform="matrix(250 0 0 -250 4283.739 1044.177)" fill="#231f20"/><use xlink:href="#aE" transform="matrix(250 0 0 -250 4371.427 1044.177)" fill="#231f20"/><use xlink:href="#aF" transform="matrix(250 0 0 -250 4529.998 1047.107)" fill="#231f20"/><use xlink:href="#aG" transform="matrix(250 0 0 -250 4690.683 1044.177)" fill="#231f20"/><use xlink:href="#aH" transform="matrix(250 0 0 -250 4760.183 1044.177)" fill="#231f20"/><use xlink:href="#aI" transform="matrix(250 0 0 -250 4815.889 1044.177)" fill="#231f20"/><use xlink:href="#aB" transform="matrix(250 0 0 -250 4953.95 1047.107)" fill="#231f20"/><symbol id="aJ"><path d="M0 0v.519h.08V.445A.186.186 0 00.243.53C.275.53.304.525.33.513A.134.134 0 00.39.47.17.17 0 00.416.404.503.503 0 00.42.32V0H.333v.315a.235.235 0 01-.01.08.083.083 0 01-.036.043.113.113 0 01-.061.016.143.143 0 01-.098-.036C.101.395.088.35.088.283V0H0z"/></symbol><symbol id="aK"><path d="M.264 0H.176v.56A.582.582 0 000 .454V.54a.53.53 0 01.129.084.33.33 0 01.078.096h.057V0z"/></symbol><symbol id="aL"><path d="M0 0v.088h.27V0H0z"/></symbol><symbol id="aM"><path d="M0 .622v.085h.463V.638a1.185 1.185 0 01-.24-.441A.922.922 0 01.191 0H.1a1.074 1.074 0 00.25.622H0z"/></symbol><symbol id="aN"><path d="M.006.142v.1h.1v-.1a.176.176 0 00-.02-.09A.127.127 0 00.024 0L0 .038c.019.008.032.02.041.036a.151.151 0 01.015.068h-.05z"/></symbol><symbol id="aO"><path d="M0 .167L.087.18A.122.122 0 01.127.1.143.143 0 01.221.072c.04 0 .07.008.09.025.02.016.03.036.03.058C.34.175.33.19.313.202a.381.381 0 01-.09.03.854.854 0 00-.134.041.134.134 0 00-.056.05.133.133 0 00-.02.07c0 .023.006.044.016.064.011.02.026.036.044.049.013.01.032.018.055.025A.298.298 0 00.312.524.145.145 0 00.382.477a.184.184 0 00.03-.08L.325.384a.094.094 0 01-.034.062.123.123 0 01-.08.023C.172.47.144.463.126.45.108.436.1.42.1.403.1.39.103.38.11.373A.078.078 0 01.144.348C.153.345.179.338.222.326.284.31.327.296.352.286A.13.13 0 00.41.238.148.148 0 00.405.081.166.166 0 00.33.021.272.272 0 00.221 0a.245.245 0 00-.154.042A.196.196 0 000 .167z"/></symbol><use xlink:href="#W" transform="matrix(127 0 0 -127 3062.507 1248.127)" fill="#231f20"/><use xlink:href="#X" transform="matrix(127 0 0 -127 3143.743 1247.445)" fill="#231f20"/><use xlink:href="#w" transform="matrix(127 0 0 -127 3185.064 1246.577)" fill="#231f20"/><use xlink:href="#v" transform="matrix(127 0 0 -127 3223.696 1248.065)" fill="#231f20"/><use xlink:href="#y" transform="matrix(127 0 0 -127 3294.06 1248.065)" fill="#231f20"/><use xlink:href="#v" transform="matrix(127 0 0 -127 3364.92 1248.065)" fill="#231f20"/><use xlink:href="#x" transform="matrix(127 0 0 -127 3430.944 1246.577)" fill="#231f20"/><use xlink:href="#u" transform="matrix(127 0 0 -127 3473.009 1248.127)" fill="#231f20"/><use xlink:href="#H" transform="matrix(127 0 0 -127 3573.427 1246.577)" fill="#231f20"/><use xlink:href="#z" transform="matrix(127 0 0 -127 3640.318 1248.065)" fill="#231f20"/><use xlink:href="#B" transform="matrix(127 0 0 -127 3710.496 1248.065)" fill="#231f20"/><use xlink:href="#w" transform="matrix(127 0 0 -127 3785.14 1246.577)" fill="#231f20"/><use xlink:href="#I" transform="matrix(127 0 0 -127 3823.276 1273.304)" fill="#231f20"/><use xlink:href="#H" transform="matrix(127 0 0 -127 3898.166 1246.577)" fill="#231f20"/><use xlink:href="#z" transform="matrix(127 0 0 -127 3965.058 1248.065)" fill="#231f20"/><use xlink:href="#x" transform="matrix(127 0 0 -127 4031.019 1246.577)" fill="#231f20"/><use xlink:href="#Y" transform="matrix(127 0 0 -127 4076.123 1246.577)" fill="#231f20"/><use xlink:href="#B" transform="matrix(127 0 0 -127 4155.25 1248.065)" fill="#231f20"/><use xlink:href="#E" transform="matrix(127 0 0 -127 4229.769 1246.577)" fill="#231f20"/><use xlink:href="#Z" transform="matrix(127 0 0 -127 4258.273 1246.577)" fill="#231f20"/><use xlink:href="#aa" transform="matrix(127 0 0 -127 4280.514 1246.577)" fill="#231f20"/><use xlink:href="#K" transform="matrix(127 0 0 -127 4349.657 1248.065)" fill="#231f20"/><use xlink:href="#x" transform="matrix(127 0 0 -127 4412.145 1246.577)" fill="#231f20"/><use xlink:href="#aJ" transform="matrix(127 0 0 -127 4455.823 1246.577)" fill="#231f20"/><use xlink:href="#w" transform="matrix(127 0 0 -127 4526.31 1246.577)" fill="#231f20"/><use xlink:href="#G" transform="matrix(127 0 0 -127 4565.056 1246.577)" fill="#231f20"/><use xlink:href="#x" transform="matrix(127 0 0 -127 4588.828 1246.577)" fill="#231f20"/><use xlink:href="#aK" transform="matrix(127 0 0 -127 4637.963 1246.577)" fill="#231f20"/><use xlink:href="#aL" transform="matrix(127 0 0 -127 4698.777 1219.292)" fill="#231f20"/><use xlink:href="#aM" transform="matrix(127 0 0 -127 4743.052 1246.577)" fill="#231f20"/><use xlink:href="#aN" transform="matrix(127 0 0 -127 4818.19 1264.56)" fill="#231f20"/><use xlink:href="#x" transform="matrix(127 0 0 -127 4842.955 1246.577)" fill="#231f20"/><use xlink:href="#aO" transform="matrix(127 0 0 -127 4882.168 1248.065)" fill="#231f20"/><use xlink:href="#z" transform="matrix(127 0 0 -127 4946.412 1248.065)" fill="#231f20"/><use xlink:href="#L" transform="matrix(127 0 0 -127 5017.334 1248.065)" fill="#231f20"/><use xlink:href="#X" transform="matrix(127 0 0 -127 5078.105 1247.445)" fill="#231f20"/><use xlink:href="#B" transform="matrix(127 0 0 -127 5115.396 1248.065)" fill="#231f20"/><use xlink:href="#w" transform="matrix(127 0 0 -127 5190.038 1246.577)" fill="#231f20"/><use xlink:href="#x" transform="matrix(127 0 0 -127 5224.082 1246.577)" fill="#231f20"/><use xlink:href="#aK" transform="matrix(127 0 0 -127 5273.217 1246.577)" fill="#231f20"/><clipPath id="aP"><path transform="matrix(1 0 0 -1 0 8503.94)" d="M0 8503.937h8503.94V0H0z"/></clipPath><g clip-path="url(#aP)"><path d="M6509.99 3534.774c-10.436-.174-18.797-8.806-18.622-19.255.175-10.45 8.813-18.804 19.255-18.629 10.442.175 18.797 8.813 18.622 19.262-.175 10.449-8.819 18.796-19.255 18.622m-58.707-74.423l.306-18.266a3.184 3.184 0 011.098-2.341c.684-.589 1.581-.874 2.479-.739 22.174 2.984 39.136 10.62 45.405 20.423.631.984.656 2.224.093 3.241a3.149 3.149 0 01-2.814 1.62l-43.474-.727a3.16 3.16 0 01-3.093-3.211m-6.324-.106a3.154 3.154 0 01-3.211 3.106l-49.026-.82a3.16 3.16 0 01-2.64-1.531 3.117 3.117 0 01-.11-3.054c2.392-4.72 6.722-12.893 8.756-14.572 6.749-4.133 20.17-5.921 40.235-5.586 1.092.018 2.185.05 3.291.089a3.156 3.156 0 013.019 3.209zm-113.133 71.55c-10.436-.174-18.789-8.806-18.615-19.255.175-10.449 8.806-18.804 19.249-18.629 10.449.175 18.809 8.814 18.634 19.262-.173 10.45-8.819 18.797-19.268 18.622m241.386-21.22l-8.364-.14c-1.89-10.476-5.331-24.819-11.047-32.486-26.73-35.888-60.717-55.481-103.838-56.202-27.942-.467-46.187 1.961-55.756 7.42-1.292.738-5.102 2.908-15.633 23.229-14.877-.016-54.266 2.025-73.486 22.974-9.648 10.51-13.605 21.915-15.201 30.461l-3.945-.066a6.307 6.307 0 00-6.41 6.205 6.31 6.31 0 006.198 6.416l3.153.053c.02.341.043.601.048.681a6.304 6.304 0 006.169 5.742l7.944.133c4.691 11.21 15.656 19.206 28.57 19.422 12.914.215 24.141-7.409 29.218-18.456l120.375 2.013c4.684 11.21 15.656 19.205 28.571 19.422 12.914.215 24.147-7.409 29.204-18.456l21.271.355.12.002a6.318 6.318 0 006.423-6.205l6.204.104c3.477.058 6.344-2.727 6.402-6.206a6.298 6.298 0 00-6.19-6.415M6199.582 3442.626c-4.127-.133-7.588-1.73-10.384-4.792-2.796-3.062-4.127-6.657-3.994-10.784.134-4.128 1.665-7.655 4.594-10.584 2.928-2.928 6.456-4.326 10.583-4.193s7.588 1.73 10.384 4.792c2.796 3.062 4.193 6.657 4.193 10.784 0 4.127-1.53 7.655-4.593 10.584-3.061 2.928-6.656 4.326-10.783 4.193M6149.06 3493.148l21.967-11.982 17.972-28.756c3.46-4.26 7.72-6.39 12.78-6.39 3.462 0 6.79 1.466 9.985 4.394l27.157 27.557a8.79 8.79 0 011.598 3.595l3.595 30.752v.798c0 1.865-.666 3.462-1.997 4.793-1.331 1.33-2.93 1.996-4.793 1.996-1.864 0-3.395-.666-4.593-1.997-1.198-1.33-1.93-2.794-2.196-4.392l-2.796-26.36-9.585-9.584 8.786 73.485 15.576 34.747c.532 1.597.799 3.058.799 4.393 0 2.925-1 5.392-2.995 7.39-1.997 1.996-4.46 2.86-7.39 2.595-3.993 0-6.922-1.867-8.786-5.591l-16.773-37.543c0-.267-.133-.732-.4-1.397a23.29 23.29 0 00-.8-1.798 3.552 3.552 0 01-.398-1.598l-1.997-17.972-17.173 59.11c-1.864 4.792-5.192 7.055-9.984 6.79-2.663 0-4.993-.999-6.99-2.996-1.997-1.997-2.995-4.464-2.995-7.388 0-.272.067-.6.199-1 .133-.398.2-.732.2-.998l23.963-81.873-2.795-26.76-6.79 10.785a7.138 7.138 0 01-1.997 1.997l-23.563 13.179c-1.598.533-2.663.799-3.195.799-1.865 0-3.462-.732-4.793-2.197s-1.997-3.129-1.997-4.993c0-2.395 1.065-4.26 3.195-5.59M3305.076 5698.513c-4.126-.133-7.588-1.73-10.384-4.793-2.795-3.061-4.126-6.656-3.993-10.783.132-4.127 1.664-7.655 4.592-10.583 2.93-2.93 6.457-4.326 10.584-4.194 4.127.133 7.588 1.73 10.384 4.792 2.796 3.063 4.193 6.657 4.193 10.784 0 4.127-1.53 7.655-4.592 10.584-3.063 2.928-6.657 4.326-10.784 4.193M3254.555 5749.034l21.966-11.981 17.972-28.755c3.46-4.261 7.72-6.391 12.78-6.391 3.462 0 6.79 1.465 9.985 4.394l27.157 27.556a8.787 8.787 0 011.598 3.595l3.595 30.752v.799c0 1.863-.666 3.461-1.997 4.793-1.331 1.331-2.93 1.997-4.793 1.997-1.864 0-3.395-.666-4.593-1.997-1.198-1.332-1.93-2.796-2.196-4.394l-2.796-26.358-9.585-9.586 8.786 73.486 15.576 34.746c.532 1.598.799 3.059.799 4.395 0 2.924-1 5.391-2.996 7.388-1.996 1.997-4.46 2.861-7.388 2.596-3.994 0-6.923-1.868-8.787-5.592l-16.773-37.542c0-.267-.133-.733-.4-1.398a23.29 23.29 0 00-.8-1.797 3.552 3.552 0 01-.398-1.598l-1.997-17.972-17.173 59.109c-1.864 4.793-5.192 7.056-9.985 6.79-2.662 0-4.992-.999-6.99-2.995-1.996-1.997-2.994-4.465-2.994-7.389 0-.271.067-.599.199-.999.134-.399.2-.733.2-.999l23.963-81.873-2.796-26.759-6.79 10.784a7.125 7.125 0 01-1.996 1.997l-23.563 13.179c-1.598.533-2.663.799-3.195.799-1.865 0-3.462-.732-4.793-2.196-1.331-1.465-1.997-3.129-1.997-4.992 0-2.397 1.065-4.261 3.195-5.592" fill="#496e6e"/><path d="M3239.219 5339.273l17.77-32.672 18.08 32.503z" fill="#030404"/><path d="M3259.684 5336.35l1.143 240.479-5.103.024-1.142-240.48zM5957.884 3314.266l-19.158-31.878 37.182.886z" fill="#030404"/><path d="M5965.736 3295.143l207.885 120.896-2.568 4.41-207.881-120.896z" fill="#030404"/></g><symbol id="aQ"><path d="M0 0v.716h.483V.63H.095V.41H.43V.325H.095V0H0z"/></symbol><symbol id="aR"><path d="M0 0v.716h.095V0H0z"/></symbol><use xlink:href="#aQ" transform="matrix(156.8259 0 0 -156.8259 5469.683 5282.188)" fill="#231f20"/><use xlink:href="#v" transform="matrix(156.8259 0 0 -156.8259 5558.305 5284.026)" fill="#231f20"/><use xlink:href="#L" transform="matrix(156.8259 0 0 -156.8259 5645.96 5284.026)" fill="#231f20"/><use xlink:href="#K" transform="matrix(156.8259 0 0 -156.8259 5728.279 5284.026)" fill="#231f20"/><use xlink:href="#E" transform="matrix(156.8259 0 0 -156.8259 5815.474 5282.188)" fill="#231f20"/><use xlink:href="#X" transform="matrix(156.8259 0 0 -156.8259 5843.015 5283.26)" fill="#231f20"/><use xlink:href="#v" transform="matrix(156.8259 0 0 -156.8259 5889.522 5284.026)" fill="#231f20"/><use xlink:href="#X" transform="matrix(156.8259 0 0 -156.8259 5973.808 5283.26)" fill="#231f20"/><use xlink:href="#z" transform="matrix(156.8259 0 0 -156.8259 6020.392 5284.026)" fill="#231f20"/><use xlink:href="#v" transform="matrix(156.8259 0 0 -156.8259 6107.51 5284.026)" fill="#231f20"/><use xlink:href="#x" transform="matrix(156.8259 0 0 -156.8259 6189.039 5282.188)" fill="#231f20"/><use xlink:href="#y" transform="matrix(156.8259 0 0 -156.8259 6237.997 5284.026)" fill="#231f20"/><use xlink:href="#z" transform="matrix(156.8259 0 0 -156.8259 6325.575 5284.026)" fill="#231f20"/><use xlink:href="#aR" transform="matrix(156.8259 0 0 -156.8259 5471.444 5470.379)" fill="#231f20"/><use xlink:href="#aJ" transform="matrix(156.8259 0 0 -156.8259 5510.753 5470.379)" fill="#231f20"/><use xlink:href="#I" transform="matrix(156.8259 0 0 -156.8259 5592.665 5503.383)" fill="#231f20"/><use xlink:href="#Z" transform="matrix(156.8259 0 0 -156.8259 5685.22 5470.379)" fill="#231f20"/><use xlink:href="#aJ" transform="matrix(156.8259 0 0 -156.8259 5719.959 5470.379)" fill="#231f20"/><use xlink:href="#z" transform="matrix(156.8259 0 0 -156.8259 5802.56 5472.217)" fill="#231f20"/><use xlink:href="#w" transform="matrix(156.8259 0 0 -156.8259 5894.197 5470.379)" fill="#231f20"/><use xlink:href="#Z" transform="matrix(156.8259 0 0 -156.8259 5946.65 5470.379)" fill="#231f20"/><use xlink:href="#z" transform="matrix(156.8259 0 0 -156.8259 5976.794 5472.217)" fill="#231f20"/><symbol id="aS"><path d="M0 .271c0 .096.027.167.08.213a.241.241 0 00.163.058c.071 0 .13-.023.175-.07A.266.266 0 00.486.278C.486.212.476.16.456.121A.211.211 0 00.368.03.253.253 0 00.243 0a.234.234 0 00-.176.07C.022.116 0 .183 0 .27m.09 0c0-.066.015-.116.044-.15a.14.14 0 01.11-.049c.043 0 .08.017.108.05.029.033.044.084.044.152C.396.338.38.387.352.419a.138.138 0 01-.109.05.14.14 0 01-.11-.05C.106.388.09.338.09.272z"/></symbol><symbol id="aT"><path d="M0 0v.717h.08V.65C.1.676.12.696.144.709c.024.013.053.02.086.02A.205.205 0 00.348.695.21.21 0 00.424.598.35.35 0 00.45.462C.45.409.44.36.421.318A.215.215 0 00.224.187a.167.167 0 00-.079.019.18.18 0 00-.057.046V0H0m.08.455C.08.388.093.34.12.307A.124.124 0 01.218.26c.04 0 .073.017.1.05C.346.342.36.393.36.462.36.528.347.578.32.611a.122.122 0 01-.098.05C.185.66.152.642.122.606.095.573.08.522.08.455z"/></symbol><symbol id="aU"><path d="M.368.076A.27.27 0 00.178 0C.12 0 .075.014.045.042A.139.139 0 000 .148a.142.142 0 00.063.12c.018.013.04.023.063.03A.628.628 0 00.204.31a.803.803 0 01.157.03v.023C.361.4.353.424.336.439.314.46.281.47.236.47.195.47.164.462.145.447.125.433.11.407.1.371L.015.382a.21.21 0 00.039.09c.018.022.043.04.077.051A.342.342 0 00.25.542c.044 0 .08-.005.108-.016a.141.141 0 00.061-.04.136.136 0 00.027-.059.495.495 0 00.005-.08V.228C.45.147.45.096.455.074A.2.2 0 01.478.012H.386a.186.186 0 00-.018.064M.361.272A.645.645 0 00.217.239.332.332 0 01.141.22a.076.076 0 01-.047-.07C.094.127.103.108.12.092.138.077.164.07.198.07s.064.007.09.022a.138.138 0 01.059.06c.01.02.014.05.014.089v.032M.334.727h.06A.141.141 0 00.35.633.144.144 0 00.25.6a.149.149 0 00-.1.032.143.143 0 00-.044.095h.06a.084.084 0 01.027-.05A.086.086 0 01.248.66c.026 0 .046.005.06.015.013.011.022.028.026.05z"/></symbol><use xlink:href="#ar" transform="matrix(156.8259 0 0 -156.8259 5456.589 5658.57)" fill="#231f20"/><use xlink:href="#P" transform="matrix(156.8259 0 0 -156.8259 5567.164 5660.408)" fill="#231f20"/><use xlink:href="#S" transform="matrix(156.8259 0 0 -156.8259 5658.801 5658.57)" fill="#231f20"/><use xlink:href="#aS" transform="matrix(156.8259 0 0 -156.8259 5706.047 5660.408)" fill="#231f20"/><use xlink:href="#ah" transform="matrix(156.8259 0 0 -156.8259 5792.859 5660.408)" fill="#231f20"/><use xlink:href="#aT" transform="matrix(156.8259 0 0 -156.8259 5876.785 5689.736)" fill="#231f20"/><use xlink:href="#N" transform="matrix(156.8259 0 0 -156.8259 5959.31 5660.408)" fill="#231f20"/><use xlink:href="#V" transform="matrix(156.8259 0 0 -156.8259 6043.595 5699.308)" fill="#231f20"/><use xlink:href="#T" transform="matrix(156.8259 0 0 -156.8259 6094.85 5658.57)" fill="#231f20"/><use xlink:href="#N" transform="matrix(156.8259 0 0 -156.8259 6124.918 5660.408)" fill="#231f20"/><use xlink:href="#O" transform="matrix(156.8259 0 0 -156.8259 6216.478 5658.57)" fill="#231f20"/><use xlink:href="#aU" transform="matrix(156.8259 0 0 -156.8259 6246.929 5660.408)" fill="#231f20"/><use xlink:href="#Q" transform="matrix(156.8259 0 0 -156.8259 6328.458 5658.57)" fill="#231f20"/><clipPath id="aV"><path transform="matrix(1 0 0 -1 0 8503.94)" d="M0 8503.937h8503.94V0H0z"/></clipPath><g clip-path="url(#aV)"><path d="M4830.344 5473.353h93.077v-93.076h-93.077z" fill="#231f20"/><path stroke-width="20" stroke-miterlimit="10" fill="none" stroke="#231f20" d="M5165.031 5718.883l1223.898 14.149M4876.882 5426.816L5167 5719.599"/><path d="M5342.42 4743.437h-93.076v-93.074h93.076z" fill="#231f20"/><path stroke-width="20" stroke-miterlimit="10" fill="none" stroke="#231f20" d="M5831 5000.944L5295.881 4696.9M7195.208 4998.944H5821.123"/><path d="M5774.915 4126.589h-93.076v-93.076h93.076z" fill="#231f20"/></g><symbol id="aW"><path d="M.538.263L.633.24A.32.32 0 00.525.061.295.295 0 00.336 0a.343.343 0 00-.188.047.298.298 0 00-.11.137.49.49 0 00.004.386c.03.056.07.098.122.127.053.029.11.043.174.043a.293.293 0 00.18-.054.284.284 0 00.103-.154L.527.51a.221.221 0 01-.072.114.193.193 0 01-.12.035.233.233 0 01-.137-.04A.21.21 0 01.12.514.442.442 0 01.124.216.2.2 0 01.207.115.232.232 0 01.329.08c.053 0 .098.015.134.046.037.03.062.076.075.136z"/></symbol><symbol id="aX"><path d="M0 0v.519h.079V.446A.183.183 0 00.236.53.17.17 0 00.33.506.128.128 0 00.382.44C.423.5.477.53.542.53.594.53.633.516.662.487.688.46.701.415.701.356V0H.616v.327c0 .035-.003.06-.009.075a.072.072 0 01-.03.038.122.122 0 01-.144-.022C.408.392.396.354.396.3V0H.308v.337c0 .039-.007.068-.021.088-.015.02-.038.03-.07.03a.129.129 0 01-.07-.02.111.111 0 01-.045-.058A.322.322 0 01.088.27V0H0z"/></symbol><use xlink:href="#aQ" transform="matrix(156.8259 0 0 -156.8259 6650.395 3663.983)" fill="#231f20"/><use xlink:href="#v" transform="matrix(156.8259 0 0 -156.8259 6739.018 3665.82)" fill="#231f20"/><use xlink:href="#L" transform="matrix(156.8259 0 0 -156.8259 6826.673 3665.82)" fill="#231f20"/><use xlink:href="#K" transform="matrix(156.8259 0 0 -156.8259 6908.99 3665.82)" fill="#231f20"/><use xlink:href="#E" transform="matrix(156.8259 0 0 -156.8259 6996.186 3663.983)" fill="#231f20"/><use xlink:href="#X" transform="matrix(156.8259 0 0 -156.8259 7023.727 3665.055)" fill="#231f20"/><use xlink:href="#v" transform="matrix(156.8259 0 0 -156.8259 7070.235 3665.82)" fill="#231f20"/><use xlink:href="#X" transform="matrix(156.8259 0 0 -156.8259 7154.52 3665.055)" fill="#231f20"/><use xlink:href="#z" transform="matrix(156.8259 0 0 -156.8259 7201.104 3665.82)" fill="#231f20"/><use xlink:href="#v" transform="matrix(156.8259 0 0 -156.8259 7288.223 3665.82)" fill="#231f20"/><use xlink:href="#x" transform="matrix(156.8259 0 0 -156.8259 7369.752 3663.983)" fill="#231f20"/><use xlink:href="#y" transform="matrix(156.8259 0 0 -156.8259 7418.71 3665.82)" fill="#231f20"/><use xlink:href="#z" transform="matrix(156.8259 0 0 -156.8259 7506.288 3665.82)" fill="#231f20"/><use xlink:href="#x" transform="matrix(156.8259 0 0 -156.8259 7587.74 3663.983)" fill="#231f20"/><use xlink:href="#aW" transform="matrix(156.8259 0 0 -156.8259 7639.148 3665.897)" fill="#231f20"/><use xlink:href="#H" transform="matrix(156.8259 0 0 -156.8259 7754.904 3663.983)" fill="#231f20"/><use xlink:href="#Z" transform="matrix(156.8259 0 0 -156.8259 7842.176 3663.983)" fill="#231f20"/><use xlink:href="#aX" transform="matrix(156.8259 0 0 -156.8259 7876.914 3663.983)" fill="#231f20"/><use xlink:href="#Z" transform="matrix(156.8259 0 0 -156.8259 8007.627 3663.983)" fill="#231f20"/><use xlink:href="#z" transform="matrix(156.8259 0 0 -156.8259 8037.772 3665.82)" fill="#231f20"/><use xlink:href="#x" transform="matrix(156.8259 0 0 -156.8259 8119.224 3663.983)" fill="#231f20"/><symbol id="aY"><path d="M0 .499l.09.008A.201.201 0 01.118.418.165.165 0 01.19.363.276.276 0 01.3.342c.036 0 .068.005.095.016.028.01.049.025.062.044.014.019.02.04.02.061A.092.092 0 01.46.522a.144.144 0 01-.064.042C.375.572.333.584.267.6A.658.658 0 00.13.644.197.197 0 00.052.71.166.166 0 00.027.8a.19.19 0 00.12.173.34.34 0 00.132.024c.053 0 .1-.009.14-.026A.2.2 0 00.513.896.217.217 0 00.548.783L.458.776a.146.146 0 01-.05.103C.38.902.338.914.283.914.226.914.184.903.158.882a.094.094 0 01-.04-.076C.119.78.129.76.147.743A.378.378 0 01.29.69.935.935 0 00.448.646.216.216 0 00.54.573C.56.543.57.51.57.47A.196.196 0 00.537.363.217.217 0 00.443.285a.414.414 0 00-.3 0A.23.23 0 000 .5M.238.113v.085H.34V.141A.187.187 0 00.322.053.118.118 0 00.258 0L.23.041c.03.013.048.037.054.072H.238z"/></symbol><use xlink:href="#ar" transform="matrix(156.8259 0 0 -156.8259 6781.11 3852.173)" fill="#231f20"/><use xlink:href="#aT" transform="matrix(156.8259 0 0 -156.8259 6896.28 3883.34)" fill="#231f20"/><use xlink:href="#O" transform="matrix(156.8259 0 0 -156.8259 6983.17 3852.173)" fill="#231f20"/><use xlink:href="#T" transform="matrix(156.8259 0 0 -156.8259 7018.368 3852.173)" fill="#231f20"/><use xlink:href="#av" transform="matrix(156.8259 0 0 -156.8259 7048.895 3854.011)" fill="#231f20"/><use xlink:href="#N" transform="matrix(156.8259 0 0 -156.8259 7126.849 3854.011)" fill="#231f20"/><use xlink:href="#ai" transform="matrix(156.8259 0 0 -156.8259 7211.135 3853.245)" fill="#231f20"/><use xlink:href="#aU" transform="matrix(156.8259 0 0 -156.8259 7257.642 3854.011)" fill="#231f20"/><use xlink:href="#Q" transform="matrix(156.8259 0 0 -156.8259 7339.17 3852.173)" fill="#231f20"/><use xlink:href="#aw" transform="matrix(156.8259 0 0 -156.8259 7387.592 3894.366)" fill="#231f20"/><use xlink:href="#T" transform="matrix(156.8259 0 0 -156.8259 7471.595 3852.173)" fill="#231f20"/><use xlink:href="#Q" transform="matrix(156.8259 0 0 -156.8259 7495.997 3852.173)" fill="#231f20"/><use xlink:href="#aY" transform="matrix(156.8259 0 0 -156.8259 7546.639 3894.366)" fill="#231f20"/><use xlink:href="#ai" transform="matrix(156.8259 0 0 -156.8259 7646.954 3853.245)" fill="#231f20"/><use xlink:href="#T" transform="matrix(156.8259 0 0 -156.8259 7698.209 3852.173)" fill="#231f20"/><use xlink:href="#T" transform="matrix(156.8259 0 0 -156.8259 7733.025 3852.173)" fill="#231f20"/><use xlink:href="#ag" transform="matrix(156.8259 0 0 -156.8259 7767.763 3852.173)" fill="#231f20"/><use xlink:href="#V" transform="matrix(156.8259 0 0 -156.8259 7847.378 3892.911)" fill="#231f20"/><use xlink:href="#N" transform="matrix(156.8259 0 0 -156.8259 7893.885 3854.011)" fill="#231f20"/><use xlink:href="#Q" transform="matrix(156.8259 0 0 -156.8259 7975.414 3852.173)" fill="#231f20"/><use xlink:href="#t" transform="matrix(156.8259 0 0 -156.8259 6980.386 4040.364)" fill="#231f20"/><use xlink:href="#v" transform="matrix(156.8259 0 0 -156.8259 7105.05 4042.202)" fill="#231f20"/><use xlink:href="#X" transform="matrix(156.8259 0 0 -156.8259 7189.335 4041.436)" fill="#231f20"/><use xlink:href="#z" transform="matrix(156.8259 0 0 -156.8259 7235.919 4042.202)" fill="#231f20"/><use xlink:href="#w" transform="matrix(156.8259 0 0 -156.8259 7327.556 4040.364)" fill="#231f20"/><use xlink:href="#Z" transform="matrix(156.8259 0 0 -156.8259 7380.008 4040.364)" fill="#231f20"/><use xlink:href="#v" transform="matrix(156.8259 0 0 -156.8259 7410.076 4042.202)" fill="#231f20"/><use xlink:href="#E" transform="matrix(156.8259 0 0 -156.8259 7501.636 4040.364)" fill="#231f20"/><use xlink:href="#z" transform="matrix(156.8259 0 0 -156.8259 7532.164 4042.202)" fill="#231f20"/><use xlink:href="#E" transform="matrix(156.8259 0 0 -156.8259 7623.647 4040.364)" fill="#231f20"/><use xlink:href="#B" transform="matrix(156.8259 0 0 -156.8259 7653.638 4042.202)" fill="#231f20"/><use xlink:href="#w" transform="matrix(156.8259 0 0 -156.8259 7745.811 4040.364)" fill="#231f20"/><use xlink:href="#x" transform="matrix(156.8259 0 0 -156.8259 7787.85 4040.364)" fill="#231f20"/><clipPath id="aZ"><path transform="matrix(1 0 0 -1 0 8503.94)" d="M0 8503.937h8503.94V0H0z"/></clipPath><g clip-path="url(#aZ)" stroke-width="20" stroke-miterlimit="10" fill="none"><path stroke="#231f20" d="M8065.036 4080.051H5728.377"/><path stroke="#bcbdbf" d="M4110.352 4664.073l352.878 338.843L4877 5242.945"/></g><use xlink:href="#aQ" transform="matrix(156.8259 0 0 -156.8259 6071.916 4770.247)" fill="#231f20"/><use xlink:href="#v" transform="matrix(156.8259 0 0 -156.8259 6160.539 4772.085)" fill="#231f20"/><use xlink:href="#L" transform="matrix(156.8259 0 0 -156.8259 6248.194 4772.085)" fill="#231f20"/><use xlink:href="#K" transform="matrix(156.8259 0 0 -156.8259 6330.512 4772.085)" fill="#231f20"/><use xlink:href="#E" transform="matrix(156.8259 0 0 -156.8259 6417.707 4770.247)" fill="#231f20"/><use xlink:href="#X" transform="matrix(156.8259 0 0 -156.8259 6445.248 4771.32)" fill="#231f20"/><use xlink:href="#v" transform="matrix(156.8259 0 0 -156.8259 6491.756 4772.085)" fill="#231f20"/><use xlink:href="#X" transform="matrix(156.8259 0 0 -156.8259 6576.041 4771.32)" fill="#231f20"/><use xlink:href="#z" transform="matrix(156.8259 0 0 -156.8259 6622.625 4772.085)" fill="#231f20"/><use xlink:href="#v" transform="matrix(156.8259 0 0 -156.8259 6709.744 4772.085)" fill="#231f20"/><use xlink:href="#x" transform="matrix(156.8259 0 0 -156.8259 6791.273 4770.247)" fill="#231f20"/><use xlink:href="#y" transform="matrix(156.8259 0 0 -156.8259 6840.23 4772.085)" fill="#231f20"/><use xlink:href="#z" transform="matrix(156.8259 0 0 -156.8259 6927.809 4772.085)" fill="#231f20"/><symbol id="ba"><path d="M.018.167L.103.155C.107.128.117.109.133.097a.146.146 0 01.09-.024c.04 0 .071.008.093.024a.12.12 0 01.045.069.561.561 0 01.007.112A.18.18 0 00.224.21.196.196 0 00.06.288.343.343 0 00.027.61a.215.215 0 00.077.097.211.211 0 00.12.034.186.186 0 00.152-.074v.062h.081V.281A.42.42 0 00.432.109.178.178 0 00.354.03.27.27 0 00.223 0a.247.247 0 00-.15.042C.035.07.016.112.018.167M.09.48C.09.411.104.361.13.33A.129.129 0 01.233.283.13.13 0 01.334.33c.027.03.041.08.041.146C.375.54.361.587.333.62a.13.13 0 01-.202 0C.104.59.091.542.091.48z"/></symbol><symbol id="bb"><path d="M0 0v.716h.143L.312.209.346.103l.038.115.172.498h.127V0H.592v.6L.384 0H.298L.091.61V0H0z"/></symbol><use xlink:href="#am" transform="matrix(156.8259 0 0 -156.8259 5890.662 4958.439)" fill="#231f20"/><use xlink:href="#ag" transform="matrix(156.8259 0 0 -156.8259 5929.97 4958.439)" fill="#231f20"/><use xlink:href="#ba" transform="matrix(156.8259 0 0 -156.8259 6011.883 4991.443)" fill="#231f20"/><use xlink:href="#T" transform="matrix(156.8259 0 0 -156.8259 6104.438 4958.439)" fill="#231f20"/><use xlink:href="#ag" transform="matrix(156.8259 0 0 -156.8259 6139.177 4958.439)" fill="#231f20"/><use xlink:href="#P" transform="matrix(156.8259 0 0 -156.8259 6221.778 4960.277)" fill="#231f20"/><use xlink:href="#S" transform="matrix(156.8259 0 0 -156.8259 6313.415 4958.439)" fill="#231f20"/><use xlink:href="#T" transform="matrix(156.8259 0 0 -156.8259 6365.867 4958.439)" fill="#231f20"/><use xlink:href="#P" transform="matrix(156.8259 0 0 -156.8259 6396.012 4960.277)" fill="#231f20"/><use xlink:href="#Q" transform="matrix(156.8259 0 0 -156.8259 6477.464 4958.439)" fill="#231f20"/><use xlink:href="#bb" transform="matrix(156.8259 0 0 -156.8259 6532.701 4958.439)" fill="#231f20"/><use xlink:href="#P" transform="matrix(156.8259 0 0 -156.8259 6657.44 4960.277)" fill="#231f20"/><use xlink:href="#as" transform="matrix(156.8259 0 0 -156.8259 6744.253 4960.277)" fill="#231f20"/><use xlink:href="#T" transform="matrix(156.8259 0 0 -156.8259 6836.502 4958.439)" fill="#231f20"/><use xlink:href="#av" transform="matrix(156.8259 0 0 -156.8259 6867.03 4960.277)" fill="#231f20"/><use xlink:href="#N" transform="matrix(156.8259 0 0 -156.8259 6944.983 4960.277)" fill="#231f20"/><use xlink:href="#O" transform="matrix(156.8259 0 0 -156.8259 7036.543 4958.439)" fill="#231f20"/><use xlink:href="#aU" transform="matrix(156.8259 0 0 -156.8259 7066.994 4960.277)" fill="#231f20"/><use xlink:href="#Q" transform="matrix(156.8259 0 0 -156.8259 7148.523 4958.439)" fill="#231f20"/></g></svg>